<svg height="32" viewBox="0 0 32 32" width="32" xmlns="http://www.w3.org/2000/svg"><path d="m31.937 9.287c-.011 0-.016-.005-.02-.005-.011 0-.021.005-.032.011-20.172 2.031-29.651 10.801-31.885 12.959l.297.468h3.525c9.161-9.213 21.541-12.271 28.089-13.276l.005.005c.004 0 .009-.011.015-.011.037-.005.068-.036.068-.077 0-.037-.027-.063-.063-.073zm-31.432 4.724-.213.401 4.328 3.156c.875-.511 1.771-.984 2.683-1.432l-2.901-2.125zm9.62 4.186c-.719.532-1.448 1.095-2.235 1.756l3.803 2.765h3.943l.167-.359z"/></svg>